<?xml version="1.0" encoding="UTF-8"?>
<svg id="Layer_1" xmlns="http://www.w3.org/2000/svg" version="1.1" viewBox="0 0 24 24">
  <!-- Generator: Adobe Illustrator 29.2.1, SVG Export Plug-In . SVG Version: 2.1.0 Build 116)  -->
  <defs>
    <style>
      .st0 {
        fill: #010101;
        stroke-miterlimit: 10;
      }

      .st0, .st1, .st2, .st3, .st4 {
        stroke: #010101;
      }

      .st0, .st1, .st2, .st4 {
        stroke-width: .5px;
      }

      .st1, .st2, .st3, .st4 {
        stroke-linecap: round;
        stroke-linejoin: round;
      }

      .st1, .st3, .st4 {
        fill: none;
      }

      .st2 {
        fill: #fff;
      }

      .st4 {
        stroke-dasharray: 1.1 1.1;
      }

      .st5 {
        fill: #23af4b;
      }
    </style>
  </defs>
  <rect class="st5" x="3" y="3" width="18" height="18"/>
  <line class="st3" x1="3" y1="21" x2="3" y2="3"/>
  <line class="st3" x1="21" y1="21" x2="21" y2="3"/>
  <g>
    <line class="st1" x1="3" y1="21" x2="3.6" y2="21"/>
    <line class="st4" x1="4.7" y1="21" x2="19.8" y2="21"/>
    <line class="st1" x1="20.4" y1="21" x2="21" y2="21"/>
  </g>
  <g>
    <line class="st1" x1="3" y1="3" x2="3.6" y2="3"/>
    <line class="st4" x1="4.7" y1="3" x2="19.8" y2="3"/>
    <line class="st1" x1="20.4" y1="3" x2="21" y2="3"/>
  </g>
  <circle class="st2" cx="21" cy="3" r="1"/>
  <circle class="st2" cx="21" cy="21" r="1"/>
  <circle class="st2" cx="3" cy="3" r="1"/>
  <circle class="st2" cx="3" cy="21" r="1"/>
  <path class="st0" d="M12.1,11.7l-2.6-2.9c-.2-.2-.5-.2-.7,0-.2.2-.2.5,0,.7l1.9,2.1H3.5c-.3,0-.5.2-.5.5s.2.5.5.5h7.1l-1.9,2.1c-.2.2-.2.5,0,.7,0,0,.2.1.3.1s.3,0,.4-.2l2.6-2.9c.2-.2.2-.5,0-.7h0Z"/>
</svg>