<?xml version="1.0" encoding="UTF-8"?>
<svg id="Layer_1" xmlns="http://www.w3.org/2000/svg" version="1.1" viewBox="0 0 24 24">
  <!-- Generator: Adobe Illustrator 29.2.1, SVG Export Plug-In . SVG Version: 2.1.0 Build 116)  -->
  <defs>
    <style>
      .st0 {
        fill: #d88d59;
        stroke: #010101;
      }

      .st0, .st1, .st2 {
        stroke-linecap: round;
        stroke-linejoin: round;
      }

      .st0, .st2 {
        stroke-width: .6px;
      }

      .st1, .st2 {
        fill: none;
        stroke: #000;
      }
    </style>
  </defs>
  <path class="st0" d="M20.4,12.1l-9.3,9.3c-.8.8-2.1.8-2.9,0l-5.9-5.9c-.8-.8-.7-2.1,0-2.9l.6-.6h17.3c0-.1.2,0,.2,0Z"/>
  <path class="st1" d="M10.2,2l1.4,1.4,8.6,8.6.2.2-9.3,9.3c-.8.8-2.1.8-2.9,0l-5.9-5.9c-.8-.8-.7-2.1,0-2.9l.6-.6L11.6,3.4"/>
  <polyline class="st2" points="2.6 12.1 2.9 12.1 20.1 12.1"/>
  <path class="st0" d="M22.3,20c0,1.1-.9,2-2,2s-2-.9-2-2,1.1-2.6,2-4c.9,1.3,2,3,2,4Z"/>
</svg>