<?xml version="1.0" encoding="UTF-8"?>
<svg id="Layer_1" xmlns="http://www.w3.org/2000/svg" version="1.1" viewBox="0 0 24 24">
  <!-- Generator: Adobe Illustrator 29.2.1, SVG Export Plug-In . SVG Version: 2.1.0 Build 116)  -->
  <defs>
    <style>
      .st0 {
        stroke: #010101;
        stroke-miterlimit: 10;
      }

      .st0, .st1 {
        fill: none;
      }

      .st2 {
        fill: #ce563e;
      }

      .st1 {
        stroke: #000;
        stroke-linecap: round;
        stroke-linejoin: round;
        stroke-width: 1.2px;
      }
    </style>
  </defs>
  <path class="st2" d="M6.6,19.8l-1.5-12.5c-.2-1.2,1.2-2.1,2.3-1.4l10.6,6.7c1.9,1.2,1.3,4.1-1,4.4l-3.9.5-2.1,3.3c-1.2,1.9-4.1,1.3-4.4-1Z"/>
  <line class="st1" x1="16.7" y1="6.9" x2="16.7" y2="4.7"/>
  <line class="st1" x1="14.4" y1="4.7" x2="16.7" y2="4.7"/>
  <line class="st1" x1="16.7" y1="4.7" x2="16.7" y2="2.4"/>
  <line class="st1" x1="16.7" y1="4.7" x2="18.9" y2="4.7"/>
  <path class="st0" d="M6.6,19.8l-1.5-12.5c-.2-1.2,1.2-2.1,2.3-1.4l10.6,6.7c1.9,1.2,1.3,4.1-1,4.4l-3.9.5-2.1,3.3c-1.2,1.9-4.1,1.3-4.4-1Z"/>
</svg>