<?xml version="1.0" encoding="UTF-8"?>
<svg id="Layer_2" xmlns="http://www.w3.org/2000/svg" version="1.1" viewBox="0 0 39.5 30.5">
  <!-- Generator: Adobe Illustrator 29.2.1, SVG Export Plug-In . SVG Version: 2.1.0 Build 116)  -->
  <defs>
    <style>
      .st0, .st1 {
        fill: #fff;
      }

      .st1 {
        stroke-width: .5px;
      }

      .st1, .st2, .st3 {
        stroke: #000;
        stroke-linecap: round;
        stroke-linejoin: round;
      }

      .st2, .st3 {
        fill: none;
      }

      .st4 {
        fill: #ffc627;
      }

      .st3 {
        stroke-dasharray: 1.5 1.5;
        stroke-width: 1.2px;
      }
    </style>
  </defs>
  <polygon class="st4" points="37.8 10.8 37.8 28.8 19.8 19.8 19.8 1.8 37.8 10.8"/>
  <polygon class="st4" points="37.8 28.8 19.8 28.8 1.8 19.8 19.8 19.8 37.8 28.8"/>
  <line class="st3" x1="37.8" y1="28.8" x2="37.8" y2="10.8"/>
  <line class="st3" x1="19.8" y1="19.8" x2="19.8" y2="1.8"/>
  <line class="st3" x1="19.8" y1="1.8" x2="37.8" y2="10.8"/>
  <line class="st2" x1="19.8" y1="19.8" x2="37.8" y2="28.8"/>
  <line class="st3" x1="1.8" y1="19.8" x2="19.8" y2="19.8"/>
  <line class="st3" x1="37.8" y1="28.8" x2="19.8" y2="28.8"/>
  <line class="st3" x1="1.8" y1="19.8" x2="19.8" y2="28.8"/>
  <circle class="st1" cx="37.8" cy="28.8" r="1.5"/>
  <circle class="st1" cx="19.8" cy="28.8" r="1.5"/>
  <circle class="st1" cx="1.8" cy="19.8" r="1.5"/>
  <circle class="st1" cx="19.8" cy="1.8" r="1.5"/>
  <circle class="st1" cx="37.8" cy="10.8" r="1.5"/>
  <path class="st0" d="M12.1.8l-3.6,3.2c-.2.2-.3.6,0,.9.2.2.6.3.9,0l2.6-2.3v8.7c0,.3.3.6.6.6s.6-.3.6-.6V2.6l2.6,2.3c.2.2.6.2.9,0,.1-.1.1-.3.1-.4s0-.3-.2-.5l-3.6-3.2c-.2-.2-.6-.2-.8,0h0Z"/>
  <path class="st0" d="M1.9,11.8l3.2,3.6c.2.2.6.3.9,0,.2-.2.3-.6,0-.9l-2.3-2.6h8.7c.3,0,.6-.3.6-.6s-.3-.6-.6-.6H3.7l2.3-2.6c.2-.2.2-.6,0-.9-.1,0-.3-.2-.4-.2s-.3,0-.5.2l-3.2,3.6c-.2.2-.2.6,0,.8h0Z"/>
</svg>