<?xml version="1.0" encoding="UTF-8"?>
<svg id="Layer_1" xmlns="http://www.w3.org/2000/svg" version="1.1" viewBox="0 0 24 24">
  <!-- Generator: Adobe Illustrator 29.2.1, SVG Export Plug-In . SVG Version: 2.1.0 Build 116)  -->
  <defs>
    <style>
      .st0 {
        fill: #fff;
        stroke-width: .5px;
      }

      .st0, .st1, .st2 {
        stroke: #010101;
        stroke-linecap: round;
        stroke-linejoin: round;
      }

      .st1 {
        fill: none;
        stroke-width: 1.2px;
      }

      .st2 {
        fill: #23af4b;
      }
    </style>
  </defs>
  <path class="st2" d="M9.6,5.4l.6-.9c.3-.5.7-.5,1.1-.5h2.7c.7,0,1,.2,1.4.8l.6.8.4.2h.3c2.1,0,1.9,1.6,1.9,2.6v5.6c0,2-1,2.7-2.5,2.7H8c-1.5,0-2.7-.9-2.7-2.5v-6.4c0-1.3,1-2.1,2.3-2.1h1.1l.9-.3h0Z"/>
  <path class="st1" d="M3.5,16.1c-.7.9-1,2.5,1.1,3.5,2.1,1,5.2.8,6.7.8"/>
  <path class="st1" d="M20.7,16.1c.7.8.4,2.5-1.5,3.5-1.5.8-2.9.8-5.3.8"/>
  <path class="st1" d="M10.1,22l1.2-1.6-1.2-1.6"/>
  <circle class="st0" cx="12" cy="10.6" r="2.8"/>
</svg>