<?xml version="1.0" encoding="UTF-8"?>
<svg id="Layer_1" xmlns="http://www.w3.org/2000/svg" version="1.1" viewBox="0 0 24 24">
  <!-- Generator: Adobe Illustrator 29.2.1, SVG Export Plug-In . SVG Version: 2.1.0 Build 116)  -->
  <defs>
    <style>
      .st0, .st1 {
        fill: #fff;
      }

      .st2 {
        fill: #010101;
        stroke: #010101;
        stroke-miterlimit: 10;
        stroke-width: .5px;
      }

      .st1 {
        opacity: .5;
      }
    </style>
  </defs>
  <path class="st0" d="M14.5,8.6c-1.3,0-2.4,1-2.4,2.2s1,2.2,2.4,2.2,2.3-1.1,2.3-2.1-1-2.2-2.3-2.2h0Z"/>
  <path class="st1" d="M19.1,7.1l-6.3-4.8c-.2-.2-.4-.2-.8-.2-.8,0-1.2.5-1.2.9s.2.5.5.8l2,1.7h-7.5c-.9,0-1.5.5-1.5,1.2s.5,1,1.1,1h3.8l-6.8,5c-.5.4-.7.8-.7,1.3,0,.6.5,1.1,1.1,1.1s.8-.2,1.2-.5l3.6-2.9c0,.1,0,.3,0,.4,0,2.7,2.6,5.7,6.7,5.7s6.8-2.7,6.8-6.1-.8-3.3-2.1-4.4h0ZM14.5,14.7c-2.4,0-4.1-1.7-4.1-3.7s1.8-3.7,4.1-3.7,4.1,1.7,4.1,3.7-1.7,3.7-4.1,3.7h0Z"/>
  <path class="st2" d="M22,17l-3.4-3.9c-.2-.3-.6-.3-.9,0s-.3.6,0,.9l2.4,2.8h-11.8c-.4,0-.7.3-.7.6s.3.6.7.6h11.8l-2.4,2.8c-.2.3-.2.7,0,.9.1.1.3.2.4.2s.4,0,.5-.2l3.4-3.9c.2-.2.2-.6,0-.9h0Z"/>
</svg>