<?xml version="1.0" encoding="UTF-8"?>
<svg id="Layer_1" xmlns="http://www.w3.org/2000/svg" version="1.1" viewBox="0 0 24 24">
  <!-- Generator: Adobe Illustrator 29.2.1, SVG Export Plug-In . SVG Version: 2.1.0 Build 116)  -->
  <defs>
    <style>
      .st0 {
        fill: #010101;
        stroke-miterlimit: 10;
      }

      .st0, .st1 {
        stroke-width: .5px;
      }

      .st0, .st1, .st2 {
        stroke: #010101;
      }

      .st1 {
        fill: #fff;
      }

      .st1, .st2 {
        stroke-linecap: round;
        stroke-linejoin: round;
      }

      .st2 {
        fill: #23af4b;
      }
    </style>
  </defs>
  <path class="st2" d="M8.3,5.9l.5-.8c.3-.4.6-.4,1-.4h2.4c.6,0,.9.1,1.2.7l.5.7.4.2h.2c1.8,0,1.7,1.4,1.7,2.3v4.9c0,1.7-.9,2.4-2.2,2.4h-7.2c-1.3,0-2.4-.8-2.4-2.2v-5.6c0-1.2.9-1.9,2-1.9h1l.8-.3h0Z"/>
  <path class="st1" d="M9.8,12.7c2,.6,3.2-1.2,3.2-2.3s-1.3-2.5-2.6-2.5-2.6,1.3-2.6,2.5,1,2,2,2.3Z"/>
  <path class="st0" d="M22,17l-3.4-3.9c-.2-.3-.6-.3-.9,0s-.3.6,0,.9l2.4,2.8h-11.8c-.4,0-.7.3-.7.6s.3.6.7.6h11.8l-2.4,2.8c-.2.3-.2.7,0,.9.1.1.3.2.4.2s.4,0,.5-.2l3.4-3.9c.2-.2.2-.6,0-.9h0Z"/>
</svg>